<svg version="1.1" preserveAspectRatio="none" xmlns="http://www.w3.org/2000/svg" width="500" height="500" viewBox="0 0 500 500"><rect width="100%" height="100%" fill="#1A244D" fill-opacity="1"/><svg viewBox="929.2334 784.4315 561.3494 110" width="333" height="65.25347671165233" x="83.5px" y="217.3733px" xmlns="http://www.w3.org/2000/svg" xmlns:xlink="http://www.w3.org/1999/xlink" preserveAspectRatio="none"><defs></defs><style>.background {fill:#1A244D;fill-opacity:1;}.icon1 {fill:#FFCC57;fill-opacity:1;}.icon1-str {stroke:#FFCC57;stroke-opacity:1;}.icon2 {fill:#3EA0C0;fill-opacity:1;}.icon3 {fill:#0AF9FF;fill-opacity:0.95;}.icon3-str {stroke:#0AF9FF;stroke-opacity:0.95;}</style><g opacity="1" transform="rotate(0 1035.2333 784.4315)">
<svg width="455.3495" height="110" x="1035.2333" y="784.4315" version="1.1" preserveAspectRatio="none" viewBox="0 0 455.3495 110">
  <defs><rect x="0" y="0" width="455.3495" height="110" rx="0px" ry="0px" id="id-B7crM0kCi1703504066100"></rect></defs><use class="icon1 icon3-str" style="stroke-width:0;" xlink:href="#id-B7crM0kCi1703504066100"></use>
</svg>
</g><g opacity="1" transform="rotate(0 1065.2333 814.4315)">
<svg width="395.3495" height="50" x="1065.2333" y="814.4315" version="1.1" preserveAspectRatio="none" viewBox="0.16 -31.48 251.44 31.8">
  <g transform="matrix(1 0 0 1 0 0)" class="background"><path id="id-D6z1nYkh12" d="M9.12 0L9.12-22.72L0.16-22.72L0.16-28L24.56-28L24.56-22.72L15.60-22.72L15.60 0L9.12 0Z M35.20-21.84Q40.20-21.84 42.88-19.46Q45.56-17.08 45.56-12.28L45.56-12.28L45.56 0L39.72 0L39.72-2.68Q37.96 0.32 33.16 0.32L33.16 0.32Q30.68 0.32 28.86-0.52Q27.04-1.36 26.08-2.84Q25.12-4.32 25.12-6.20L25.12-6.20Q25.12-9.20 27.38-10.92Q29.64-12.64 34.36-12.64L34.36-12.64L39.32-12.64Q39.32-14.68 38.08-15.78Q36.84-16.88 34.36-16.88L34.36-16.88Q32.64-16.88 30.98-16.34Q29.32-15.80 28.16-14.88L28.16-14.88L25.92-19.24Q27.68-20.48 30.14-21.16Q32.60-21.84 35.20-21.84L35.20-21.84ZM34.72-3.88Q36.32-3.88 37.56-4.62Q38.80-5.36 39.32-6.80L39.32-6.80L39.32-9L35.04-9Q31.20-9 31.20-6.48L31.20-6.48Q31.20-5.28 32.14-4.58Q33.08-3.88 34.72-3.88L34.72-3.88Z M51.20 0L51.20-21.52L57.44-21.52L57.44 0L51.20 0ZM54.32-24.52Q52.60-24.52 51.52-25.52Q50.44-26.52 50.44-28L50.44-28Q50.44-29.48 51.52-30.48Q52.60-31.48 54.32-31.48L54.32-31.48Q56.04-31.48 57.12-30.52Q58.20-29.56 58.20-28.12L58.20-28.12Q58.20-26.56 57.12-25.54Q56.04-24.52 54.32-24.52L54.32-24.52Z M63.24 0L63.24-29.68L69.48-29.68L69.48 0L63.24 0Z M85.52 0.32Q82.12 0.32 79.42-1.10Q76.72-2.52 75.20-5.04Q73.68-7.56 73.68-10.76L73.68-10.76Q73.68-13.96 75.20-16.48Q76.72-19 79.42-20.42Q82.12-21.84 85.52-21.84L85.52-21.84Q88.92-21.84 91.60-20.42Q94.28-19 95.80-16.48Q97.32-13.96 97.32-10.76L97.32-10.76Q97.32-7.56 95.80-5.04Q94.28-2.52 91.60-1.10Q88.92 0.32 85.52 0.32L85.52 0.32ZM85.52-4.80Q87.92-4.80 89.46-6.42Q91-8.04 91-10.76L91-10.76Q91-13.48 89.46-15.10Q87.92-16.72 85.52-16.72L85.52-16.72Q83.12-16.72 81.56-15.10Q80-13.48 80-10.76L80-10.76Q80-8.04 81.56-6.42Q83.12-4.80 85.52-4.80L85.52-4.80Z M107.44-18.68Q108.56-20.24 110.46-21.04Q112.36-21.84 114.84-21.84L114.84-21.84L114.84-16.08Q113.80-16.16 113.44-16.16L113.44-16.16Q110.76-16.16 109.24-14.66Q107.72-13.16 107.72-10.16L107.72-10.16L107.72 0L101.48 0L101.48-21.52L107.44-21.52L107.44-18.68Z M166.60-28L172.80-28L163.64 0L156.68 0L150.52-18.96L144.16 0L137.24 0L128.04-28L134.76-28L141.08-8.32L147.68-28L153.68-28L160.08-8.16L166.60-28Z M184.60 0.32Q181.20 0.32 178.50-1.10Q175.80-2.52 174.28-5.04Q172.76-7.56 172.76-10.76L172.76-10.76Q172.76-13.96 174.28-16.48Q175.80-19 178.50-20.42Q181.20-21.84 184.60-21.84L184.60-21.84Q188.00-21.84 190.68-20.42Q193.36-19 194.88-16.48Q196.40-13.96 196.40-10.76L196.40-10.76Q196.40-7.56 194.88-5.04Q193.36-2.52 190.68-1.10Q188.00 0.32 184.60 0.32L184.60 0.32ZM184.60-4.80Q187.00-4.80 188.54-6.42Q190.08-8.04 190.08-10.76L190.08-10.76Q190.08-13.48 188.54-15.10Q187.00-16.72 184.60-16.72L184.60-16.72Q182.20-16.72 180.64-15.10Q179.08-13.48 179.08-10.76L179.08-10.76Q179.08-8.04 180.64-6.42Q182.20-4.80 184.60-4.80L184.60-4.80Z M206.52-18.68Q207.64-20.24 209.54-21.04Q211.44-21.84 213.92-21.84L213.92-21.84L213.92-16.08Q212.88-16.16 212.52-16.16L212.52-16.16Q209.84-16.16 208.32-14.66Q206.80-13.16 206.80-10.16L206.80-10.16L206.80 0L200.56 0L200.56-21.52L206.52-21.52L206.52-18.68Z M217.64 0L217.64-29.68L223.88-29.68L223.88 0L217.64 0Z M245.36-29.68L251.60-29.68L251.60 0L245.64 0L245.64-2.48Q243.32 0.32 238.92 0.32L238.92 0.32Q235.88 0.32 233.42-1.04Q230.96-2.40 229.56-4.92Q228.16-7.44 228.16-10.76L228.16-10.76Q228.16-14.08 229.56-16.60Q230.96-19.12 233.42-20.48Q235.88-21.84 238.92-21.84L238.92-21.84Q243.04-21.84 245.36-19.24L245.36-19.24L245.36-29.68ZM240-4.80Q242.36-4.80 243.92-6.42Q245.48-8.04 245.48-10.76L245.48-10.76Q245.48-13.48 243.92-15.10Q242.36-16.72 240-16.72L240-16.72Q237.60-16.72 236.04-15.10Q234.48-13.48 234.48-10.76L234.48-10.76Q234.48-8.04 236.04-6.42Q237.60-4.80 240-4.80L240-4.80Z"/></g>
</svg>
</g><g opacity="1" transform="rotate(0 929.2334 784.4315)">
<svg width="109.9999" height="110" x="929.2334" y="784.4315" version="1.1" preserveAspectRatio="none" viewBox="0 0 109.9999 110">
  <defs><rect x="2.199998" y="2.199998" width="105.599904" height="105.600004" rx="0px" ry="0px" id="id-tBXipXk0b1703504066101"></rect></defs><use class="background icon1-str" style="stroke-width:4.399996;" xlink:href="#id-tBXipXk0b1703504066101"></use>
</svg>
</g><g opacity="1" transform="rotate(0 949.2334 807.0564)">
<svg width="69.9999" height="64.7503" x="949.2334" y="807.0564" version="1.1" preserveAspectRatio="none" viewBox="19.999265670776367 25.999317169189453 160.0008544921875 148.0015411376953">
  <g transform="matrix(1 0 0 1 0 0)"><g><path d="M68.032 130.704c0 4.944-3.995 8.951-8.923 8.951s-8.923-4.007-8.923-8.951c0-4.944 3.995-8.951 8.923-8.951s8.923 4.007 8.923 8.951z" data-color="1" class="icon1"></path><path d="M40.503 41.488s-.643.277-1.195.645c-.551.369-2.205.922-3.308 1.475-1.103.553-2.297.922-3.308 1.29-1.011.369-2.665 1.751-3.4 2.765-.735 1.014-1.93 1.936-3.032 2.396s-2.573 3.226-3.124 4.332c-.551 1.106-1.286 1.382-1.47 1.659-.184.276.092 1.014.092 1.014s-1.103 1.29-1.47 2.028c-.368.737-.368 3.687-.092 4.516.276.829 1.011 4.24 1.378 5.161s-.184 1.751 0 2.304.092 1.198-.184 1.843-.735 1.659-.643 2.12c.092.461.643 1.198 1.011 1.751.368.553.735 1.383 1.011 1.659.276.276.735.276 1.286.461.552.185 1.287.093 1.287.093s.276-.092.276-.461.092-1.014.092-1.014.276.461.368-.461c.092-.922.643-1.659.643-2.396 0-.737-.092-1.106-.368-1.935a20.09 20.09 0 0 0-1.011-2.489c-.368-.737-.276-2.673-.368-4.608-.092-1.936 0-2.949 0-3.687 0-.737.919-1.751.919-1.751s1.011.369 1.47-.276c.459-.645 1.286-1.751 1.746-2.581.459-.83 1.103-1.198 1.562-1.751.459-.553.827-.922 1.011-.461s.459 1.014.459 2.028.551 1.843.551 3.134c0 1.29-.368 2.396 0 3.318.368.922.551 1.936.276 2.673-.276.737 0 1.383.184 2.396.184 1.014-.368 4.885-.368 6.452 0 1.567-.184 6.912.459 10.415.643 3.502 1.378 9.862 1.746 11.337.368 1.475.643 3.594.643 3.594s-.551 1.843-.643 2.949c-.092 1.106-.184 4.24-.184 5.807 0 1.567-.092 3.963-.827 6.175-.735 2.212-1.286 5.53-1.378 7.466-.092 1.936-.919 5.991-1.47 7.005-.551 1.014-1.746 3.41-2.94 4.608-1.195 1.198-2.481 1.106-2.94 2.304-.459 1.198.368 1.659 1.654 2.028s4.686.276 5.513 0c.827-.277 2.389-1.29 2.757-2.12.368-.829.368-1.475.276-2.396-.092-.922-.184-2.396.459-3.779s4.227-9.401 5.145-11.429c.919-2.028 1.103-5.254 1.103-5.899v-1.198s1.746.553 2.757-.184c1.011-.737 1.011-.737 2.297-1.383 1.286-.645 5.697-2.673 6.983-3.502 1.286-.829 1.562-.645 2.297-.829.735-.184 2.389.184 2.389.184s.735 6.175 3.4 5.807c2.665-.369 2.665-2.765 2.573-3.963-.092-1.198-1.654-3.963-1.378-6.175.276-2.212-.184-4.055-.827-4.608-.643-.553-2.665 0-3.308.645l-1.746 1.751s-2.94.369-4.778.829c-1.838.461-3.492.184-4.227.184h-1.195l.184-2.212.368-.922s1.195-.184 1.746-.737c.551-.553 1.746-3.687 2.297-4.701.551-1.014 2.481-5.899 3.032-7.742.551-1.843.276-3.226.184-4.332-.092-1.106 0-2.581-.092-3.594s-.735-1.659-.276-2.212c.459-.553.919-3.134.184-3.963-.735-.83-1.194-1.936-.735-2.765.459-.83.551-1.659.368-3.41-.184-1.751-.184-3.042.368-3.871l.919-1.383s1.194 2.028 1.838 2.673c.643.645 1.378 2.028 1.838 2.396.459.369 1.838.922 1.838.922s.459.922.459 1.935c0 1.014.459 2.489.919 3.41.459.922 1.195 3.041 1.378 4.885.184 1.843.276 2.673.276 4.608 0 1.936 0 3.687.184 4.332s.735 1.198.827 1.475c.092.276.735.369.735.369s.092.737-.092 1.198c-.184.461-.184.83.092 1.198.276.369.827-.461.827-.461s.551.277.919.092c.368-.184.551-.737.551-.737s.368.092 1.011-.369c.643-.461 1.286-.829 1.286-1.382 0-.553-.459-1.751-.551-2.581-.092-.83-1.194-1.843-1.654-3.41-.459-1.567-1.103-8.203-1.103-10.323 0-2.12-.643-4.055-1.378-4.977-.735-.922-1.378-2.396-1.378-2.396s-.368-1.567-.735-2.489c-.368-.922-3.675-4.516-4.686-6.544-1.011-2.028-3.675-4.793-5.972-6.36a74.17 74.17 0 0 1-4.135-3.042l-.551-.737s1.194-1.659 1.378-3.042c.184-1.383.919-5.161.092-7.466-.827-2.304-3.032-3.595-3.951-4.055l-.919-.461s-.276-1.659-2.113-1.567c-1.838.092-2.297 1.383-2.389 1.936-.092.553-.092 1.29-.092 1.29s-1.195.645-1.378 2.212c-.184 1.567-.184 4.608-.184 4.608s-.643 0-.735 1.014c-.092 1.014.383 2.276.735 2.489.459.276.919.369.919.369s.364 1.198.456 1.567z" data-color="1" class="icon1"></path><path d="M179.982 162.503c-.276-1.475-3.859-4.977-4.962-6.175s-6.891-8.572-8.361-11.613c-1.47-3.042-4.778-6.267-7.351-8.019-2.573-1.751-4.778-3.502-4.87-5.254-.092-1.751.643-6.083.643-8.019s.276-6.452.276-6.452 3.032-4.977 2.848-9.032c-.184-4.055-1.103-8.295-3.124-11.152-2.021-2.857-3.4-10.323-3.492-13.272-.092-2.949-1.103-8.664-2.665-12.074s-3.216-5.991-3.216-5.991.368-3.318-.551-4.977c-.919-1.659-.919-6.083-2.021-7.465-1.103-1.383-4.502-4.793-4.502-4.793s-1.378-1.382-1.93-1.567c-.551-.184-1.654-1.014-1.838-2.12-.184-1.106-1.47-1.106-2.389-.829-.919.276-2.205 1.567-2.389 2.396-.184.829.643 2.949.643 2.949s-3.308 1.383-3.859 2.304c-.551.922-1.838 2.12-1.838 3.595s.735 3.226.735 3.226-.459 1.475-.184 2.396c.276.922.276 1.659.276 1.659s-3.308 1.843-4.686 2.304c-1.378.461-2.573.092-2.757.553-.184.461-.184.829-.184.829s-2.481 1.198-3.859 1.475c-1.378.276-3.216.369-4.043.369s-2.94-.184-2.94-.184 1.378-.645 1.562-1.106c.184-.461.368-5.991-.551-8.295-.919-2.304-3.124-4.24-3.951-4.608-.827-.369-3.216-.737-3.216-.737s.368-1.014 1.103-1.475c0 0-1.286-.184-1.746.461-.459.645-1.286-1.106-1.286-1.106s-.459.092-.459.83-2.021-.277-2.573-.277c-.551 0-1.103.277-1.103.277l.919.645s-1.654.461-2.573.829c-.919.369-3.675 1.198-4.41 2.12l-.735.922s.735-.461 1.103-.276c.368.184-1.47 1.936-1.838 2.396-.368.461-1.011 1.751-1.103 2.396-.092.645-.459 1.106-.459 1.106s.092-2.12-.459-2.673c-.551-.553-1.011-1.382-1.562-1.659-.551-.277-.919-.461-1.562-1.014-.643-.553-1.103.461-1.103.461l.092.829s-.735-.553-1.286-.553-1.103.737-1.562.922c-.459.184.184.829.184.829s-.551 0-.643.553c-.092.553.276.737.276.737s-.459.369-.459.645.276.645.276.645-.459-.092-.551.645c-.092.737.735 1.106.735 1.106s.919.276 1.378.461c.459.184 1.47 1.014 1.93 1.567.459.553 1.47 1.29 2.573 1.475 1.103.184 1.47 1.014 3.216 1.936 1.746.922 5.513 4.516 5.513 4.516s-1.47.645-2.205 1.014c-.735.369-2.021 1.383-2.848 1.475-.827.092-2.848 1.106-3.308 1.198-.459.092-.827 1.106-.919 1.567-.092.461-.551 1.198-.551 1.198s-.551.737-.827 1.383c-.276.645-.368 1.106-.276 1.475.092.369.827.369.827.369s-.368.737-.184 1.198c.184.461 1.011-.092 1.011-.092s0 .184.551.369c.551.184.735-.184 1.47-.276.735-.092 1.562-.737 2.297-1.475.735-.737 1.654-.829 2.389-1.567l1.286-1.29s1.93 1.659 3.032 1.843c1.103.184 3.583.184 4.319.184.735 0 2.205-.092 2.205-.092s.092 2.028 0 3.871.551 4.977.551 4.977 2.113 5.53 3.032 6.913 1.654 2.581 1.838 4.148c.184 1.567 1.378 2.673.919 3.318-.459.645-2.389 1.383-2.389 2.212 0 .829 1.195 1.567 1.195 1.567s-2.205 1.198-2.94 3.318c-.735 2.12-1.195 4.793-1.195 6.82 0 2.028-.092 3.963-.092 3.963s-4.135 3.502-5.513 5.069c-1.378 1.567-3.4 4.147-3.951 6.175-.551 2.028-.551 4.147.735 5.622 1.286 1.475 4.778 3.134 4.778 3.134s.184 1.475-.276 2.673c-.459 1.198-1.838 1.936-3.492 1.843-1.654-.092-5.789 0-7.626-1.014-1.838-1.014-3.124.369-2.848 1.843.276 1.475 6.156 4.516 8.269 5.069 2.113.553 4.594.276 7.535 1.751 2.94 1.475 5.421 1.383 5.789.277.368-1.106.643-3.318.551-3.779-.092-.461.643-1.843.643-1.843s3.583 2.396 5.421 3.502c1.838 1.106 4.502 2.857 4.502 2.857l-.092.369-.643.737s-.184 2.396-.643 3.687c-.459 1.29-2.389 2.949-3.216 3.318-.827.369-1.93 1.475-2.021 2.673-.092 1.198 2.848 1.383 4.41 1.014 1.562-.369 3.951-2.396 4.962-3.318 1.011-.922 2.848-2.212 4.41-2.581 1.562-.369 3.032-2.304 3.032-2.304s6.616 3.502 7.994 3.871c1.378.369 2.848.922 3.216 1.475.368.553.276 1.106.276 1.106l-1.378.184s-.643.829-.919 2.12c-.276 1.29-1.93 2.489-2.94 2.765-1.011.276-2.205.092-2.481 1.659-.276 1.567 2.665 1.475 4.502 1.198 1.838-.276 4.502-1.751 6.983-1.106 2.481.645 5.789.83 6.524-.092.735-.922 1.194-6.267.827-6.452-.368-.184-3.767-3.779-4.41-4.055-.643-.276-9.464-8.203-11.761-10.691-2.297-2.489-7.81-5.069-8.637-5.438-.827-.369-1.562-1.659-1.47-2.489.092-.829 1.93-3.594 2.113-4.424.184-.829 1.286-3.134 1.286-3.134s2.389.737 3.492.737c1.103 0 1.103-1.014 1.011-2.396-.092-1.383-.092-5.161.827-7.281s1.378-3.41 1.47-5.161c.092-1.751.368-3.134.368-3.134s2.665-.461 3.859-.922c1.195-.461 2.665-.645 2.665-.645s-.368 1.475-.643 2.304c-.276.829.735 1.382 1.378 2.212.643.83 1.195 2.396 1.378 3.871.184 1.475 1.654 8.479 3.124 10.138 1.47 1.659 5.881 6.175 6.983 7.281 1.103 1.106 10.107 8.94 11.945 11.06 1.838 2.12 4.135 5.438 4.135 5.438s.276 1.106-.551 1.843c-.827.737-2.573 2.304-3.859 2.396-1.286.092-4.135.553-4.41 1.843-.276 1.29 3.492 2.489 5.697 1.935 2.205-.553 7.351-1.198 9.556-.829 2.201.37 5.142-2.671 4.866-4.146zM91.607 64.634c-.09.996 0 1.268 0 1.268s-1.626-.906-2.348-1.449c-.722-.544-1.625-.906-1.625-.906l-.452-.544s.452 0 .632-.544c.181-.544.542-.453.813-.725.271-.272.903-.181.722.272-.181.453-.181 1.087-.181 1.087s.451.181.632-.272.993-.725.993-.725.361.181.722.725c.363.545.182.817.092 1.813zm20.966 72.422c-.106 1.8-.317 2.964-.317 2.964l-.528.106-.633-.424c-.633-.424-2.428-1.482-2.428-1.482s.317-1.271.422-2.118c.106-.847.317-3.07.317-3.07l1.689-1.059 1.9 1.376c.001.001-.316 1.907-.422 3.707zm11.084-55.383c-.459.276-1.929 1.106-1.929 1.106s-1.838-2.489-2.94-4.608c-1.103-2.12-.919-4.332-1.286-4.885-.368-.553-1.93-1.383-1.93-1.383s2.665-.461 3.767-.829c1.103-.369 2.848-.369 3.308-.276.459.092 1.562.829 2.205 1.106.643.276.735.092 1.562-.276.827-.369 1.746-.461 1.746-.461s.184 2.673.551 3.687c.367 1.014.276 1.659.276 1.659s-1.654.829-2.113 1.567c-.46.735-2.757 3.316-3.217 3.593zm11.026 18.802c-.184.461-.459.645-1.562.645s-1.286.829-1.93.461c-.643-.369-1.103.092-1.746.276-.643.184-1.562-.092-1.562-.092s.184-4.24-.368-5.714c-.551-1.475-3.124-6.82-3.124-6.82s2.481-1.843 3.216-2.396 3.492-2.212 3.492-2.212l1.654 3.318c.459.922 1.103 3.502 1.194 5.069.092 1.567.368 3.502.643 4.608.277 1.105.277 2.396.093 2.857z" data-color="1" class="icon1"></path></g></g>
</svg>
</g></svg></svg>